<svg xmlns="http://www.w3.org/2000/svg" viewBox="0 0 180 180" fill="none">
  <rect width="180" height="180" rx="32" fill="#000"/>
  <path d="M45 68c0-12.4 10.1-22.5 22.5-22.5s22.5 10.1 22.5 22.5v11.25h11.25c6.2 0 11.25 5.05 11.25 11.25v45c0 6.2-5.05 11.25-11.25 11.25H56.25c-6.2 0-11.25-5.05-11.25-11.25v-45c0-6.2 5.05-11.25 11.25-11.25H67.5V68zm11.25 11.25V68c0-6.2 5.05-11.25 11.25-11.25s11.25 5.05 11.25 11.25v11.25h-22.5z" fill="#00ff88"/>
  <circle cx="135" cy="45" r="11.25" fill="#ff4444"/>
  <rect x="123.75" y="135" width="45" height="11.25" rx="5.625" fill="#00ff88"/>
  <rect x="123.75" y="151.875" width="33.75" height="11.25" rx="5.625" fill="#00ff88"/>
</svg>
